/* XPM */
static char * gnaural_icon_xpm[] = {
"32 32 40 1",
" 	c None",
".	c #000000",
"+	c #FFD008",
"@	c #FFCF04",
"#	c #FDCD00",
"$	c #FFD009",
"%	c #FDCC00",
"&	c #FFCE00",
"*	c #FFCF07",
"=	c #FBCC00",
"-	c #FFD00C",
";	c #FECD00",
">	c #FFCF06",
",	c #FFCF00",
"'	c #FFD005",
")	c #FACA00",
"!	c #FCCC00",
"~	c #FFD10F",
"{	c #FECE00",
"]	c #FFD10C",
"^	c #F6C600",
"/	c #F6C800",
"(	c #FFD00B",
"_	c #F4C600",
":	c #F5C600",
"<	c #FFD00A",
"[	c #F2C300",
"}	c #F9C900",
"|	c #FFD10D",
"1	c #FBCA00",
"2	c #FFD007",
"3	c #FAC900",
"4	c #F4C500",
"5	c #F5C500",
"6	c #FCCB00",
"7	c #F6C700",
"8	c #EDC100",
"9	c #F7C800",
"0	c #FFCF05",
"a	c #FFCE07",
"                                ",
"           .....   .            ",
"          ......  .....         ",
"       .........  .....         ",
"      ....  ....  ........      ",
"     ......  ...  ....  ...     ",
"      .....  ...  ...  .....    ",
"       ..... ... ...........    ",
"   ..   .... ... ..........     ",
"  .....  .... .. ...   ...      ",
"  ......  ... .. .. ..      ..  ",
" ........  ..... ......   ..... ",
"    ....... ..    ...   ....... ",
"       .....          ......... ",
"        ....        ........... ",
"        ...         ...         ",
"                     ..         ",
" .....  ....        ........... ",
" ...... . ..     +@#  ......... ",
" .......  ..  .  $%@&    ...... ",
" ...  ...... ..  *= -      .... ",
" ..   .....  ..  ;>   ,')       ",
"  ........  ..   !~# {]~~&^     ",
"   ......  ...   /~(_:&<~~<%[   ",
"   .....   ...    <~;  {~~~~+   ",
"    ...   ....    ;~~}  <~~|    ",
"    ..   ....     1~~2  3<4     ",
"         ....     5~~~67!#      ",
"        .....     8<~~~~'9      ",
"        .....      )<~<0a       ",
"          ...        :          ",
"                                "};
